<svg width="48" height="48" viewBox="0 0 48 48" fill="none" xmlns="http://www.w3.org/2000/svg">
<path d="M0 16C0 7.16344 7.16344 0 16 0H48V32C48 40.8366 40.8366 48 32 48H0V16Z" fill="#252525"/>
<path d="M18.8477 27.5352C18.8477 27.2305 18.8008 26.957 18.707 26.7148C18.6211 26.4648 18.457 26.2383 18.2148 26.0352C17.9727 25.8242 17.6328 25.6172 17.1953 25.4141C16.7578 25.2109 16.1914 25 15.4961 24.7812C14.7227 24.5312 13.9883 24.25 13.293 23.9375C12.6055 23.625 11.9961 23.2617 11.4648 22.8477C10.9414 22.4258 10.5273 21.9375 10.2227 21.3828C9.92578 20.8281 9.77734 20.1836 9.77734 19.4492C9.77734 18.7383 9.93359 18.0938 10.2461 17.5156C10.5586 16.9297 10.9961 16.4297 11.5586 16.0156C12.1211 15.5938 12.7852 15.2695 13.5508 15.043C14.3242 14.8164 15.1719 14.7031 16.0938 14.7031C17.3516 14.7031 18.4492 14.9297 19.3867 15.3828C20.3242 15.8359 21.0508 16.457 21.5664 17.2461C22.0898 18.0352 22.3516 18.9375 22.3516 19.9531H18.8594C18.8594 19.4531 18.7539 19.0156 18.543 18.6406C18.3398 18.2578 18.0273 17.957 17.6055 17.7383C17.1914 17.5195 16.668 17.4102 16.0352 17.4102C15.4258 17.4102 14.918 17.5039 14.5117 17.6914C14.1055 17.8711 13.8008 18.1172 13.5977 18.4297C13.3945 18.7344 13.293 19.0781 13.293 19.4609C13.293 19.75 13.3633 20.0117 13.5039 20.2461C13.6523 20.4805 13.8711 20.6992 14.1602 20.9023C14.4492 21.1055 14.8047 21.2969 15.2266 21.4766C15.6484 21.6562 16.1367 21.832 16.6914 22.0039C17.6211 22.2852 18.4375 22.6016 19.1406 22.9531C19.8516 23.3047 20.4453 23.6992 20.9219 24.1367C21.3984 24.5742 21.7578 25.0703 22 25.625C22.2422 26.1797 22.3633 26.8086 22.3633 27.5117C22.3633 28.2539 22.2188 28.918 21.9297 29.5039C21.6406 30.0898 21.2227 30.5859 20.6758 30.9922C20.1289 31.3984 19.4766 31.707 18.7188 31.918C17.9609 32.1289 17.1133 32.2344 16.1758 32.2344C15.332 32.2344 14.5 32.125 13.6797 31.9062C12.8594 31.6797 12.1133 31.3398 11.4414 30.8867C10.7773 30.4336 10.2461 29.8555 9.84766 29.1523C9.44922 28.4492 9.25 27.6172 9.25 26.6562H12.7773C12.7773 27.1875 12.8594 27.6367 13.0234 28.0039C13.1875 28.3711 13.418 28.668 13.7148 28.8945C14.0195 29.1211 14.3789 29.2852 14.793 29.3867C15.2148 29.4883 15.6758 29.5391 16.1758 29.5391C16.7852 29.5391 17.2852 29.4531 17.6758 29.2812C18.0742 29.1094 18.3672 28.8711 18.5547 28.5664C18.75 28.2617 18.8477 27.918 18.8477 27.5352ZM31.4336 24.5117H27.0508L27.0273 22.0977H30.707C31.3555 22.0977 31.8867 22.0156 32.3008 21.8516C32.7148 21.6797 33.0234 21.4336 33.2266 21.1133C33.4375 20.7852 33.543 20.3867 33.543 19.918C33.543 19.3867 33.4414 18.957 33.2383 18.6289C33.043 18.3008 32.7344 18.0625 32.3125 17.9141C31.8984 17.7656 31.3633 17.6914 30.707 17.6914H28.2695V32H24.7539V14.9375H30.707C31.6992 14.9375 32.5859 15.0312 33.3672 15.2188C34.1562 15.4062 34.8242 15.6914 35.3711 16.0742C35.918 16.457 36.3359 16.9414 36.625 17.5273C36.9141 18.1055 37.0586 18.793 37.0586 19.5898C37.0586 20.293 36.8984 20.9414 36.5781 21.5352C36.2656 22.1289 35.7695 22.6133 35.0898 22.9883C34.418 23.3633 33.5391 23.5703 32.4531 23.6094L31.4336 24.5117ZM31.2812 32H26.0898L27.4609 29.2578H31.2812C31.8984 29.2578 32.4023 29.1602 32.793 28.9648C33.1836 28.7617 33.4727 28.4883 33.6602 28.1445C33.8477 27.8008 33.9414 27.4062 33.9414 26.9609C33.9414 26.4609 33.8555 26.0273 33.6836 25.6602C33.5195 25.293 33.2539 25.0117 32.8867 24.8164C32.5195 24.6133 32.0352 24.5117 31.4336 24.5117H28.0469L28.0703 22.0977H32.2891L33.0977 23.0469C34.1367 23.0312 34.9727 23.2148 35.6055 23.5977C36.2461 23.9727 36.7109 24.4609 37 25.0625C37.2969 25.6641 37.4453 26.3086 37.4453 26.9961C37.4453 28.0898 37.207 29.0117 36.7305 29.7617C36.2539 30.5039 35.5547 31.0625 34.6328 31.4375C33.7188 31.8125 32.6016 32 31.2812 32Z" fill="#EDEDED"/>
</svg>
